<mxfile host="app.diagrams.net" modified="2024-01-15T13:21:41.057Z" agent="Mozilla/5.0 (Macintosh; Intel Mac OS X 10_15_7) AppleWebKit/537.36 (KHTML, like Gecko) Chrome/120.0.0.0 Safari/537.36" etag="GTDX6OWMdUhjUD_go-oM" version="22.1.18" type="github">
  <diagram name="第 1 页" id="4Z4vOjG33hLCItT1rQMN">
    <mxGraphModel dx="954" dy="581" grid="1" gridSize="10" guides="1" tooltips="1" connect="1" arrows="1" fold="1" page="1" pageScale="1" pageWidth="827" pageHeight="1169" math="0" shadow="0">
      <root>
        <mxCell id="0" />
        <mxCell id="1" parent="0" />
        <mxCell id="C9_ZeGXNqVljK5FA-xq8-1" value="" style="verticalLabelPosition=bottom;sketch=0;aspect=fixed;html=1;verticalAlign=top;strokeColor=none;align=center;outlineConnect=0;shape=mxgraph.citrix.pda;" vertex="1" parent="1">
          <mxGeometry x="360" y="119.5" width="30" height="61" as="geometry" />
        </mxCell>
        <mxCell id="C9_ZeGXNqVljK5FA-xq8-7" value="" style="edgeStyle=orthogonalEdgeStyle;rounded=0;orthogonalLoop=1;jettySize=auto;html=1;" edge="1" parent="1" source="C9_ZeGXNqVljK5FA-xq8-2" target="C9_ZeGXNqVljK5FA-xq8-6">
          <mxGeometry relative="1" as="geometry" />
        </mxCell>
        <mxCell id="C9_ZeGXNqVljK5FA-xq8-8" value="生成文书pdf文件" style="edgeLabel;html=1;align=center;verticalAlign=middle;resizable=0;points=[];" vertex="1" connectable="0" parent="C9_ZeGXNqVljK5FA-xq8-7">
          <mxGeometry x="-0.14" relative="1" as="geometry">
            <mxPoint as="offset" />
          </mxGeometry>
        </mxCell>
        <mxCell id="C9_ZeGXNqVljK5FA-xq8-2" value="" style="image;html=1;image=img/lib/clip_art/computers/Server_Rack_128x128.png" vertex="1" parent="1">
          <mxGeometry x="590" y="110" width="80" height="80" as="geometry" />
        </mxCell>
        <mxCell id="C9_ZeGXNqVljK5FA-xq8-3" value="" style="image;html=1;image=img/lib/clip_art/computers/Printer_Commercial_128x128.png" vertex="1" parent="1">
          <mxGeometry x="30" y="560.5" width="80" height="80" as="geometry" />
        </mxCell>
        <mxCell id="C9_ZeGXNqVljK5FA-xq8-4" value="" style="endArrow=classic;html=1;rounded=0;" edge="1" parent="1">
          <mxGeometry width="50" height="50" relative="1" as="geometry">
            <mxPoint x="420" y="149.5" as="sourcePoint" />
            <mxPoint x="580" y="150" as="targetPoint" />
          </mxGeometry>
        </mxCell>
        <mxCell id="C9_ZeGXNqVljK5FA-xq8-5" value="请求文书下载地址" style="edgeLabel;html=1;align=center;verticalAlign=middle;resizable=0;points=[];" vertex="1" connectable="0" parent="C9_ZeGXNqVljK5FA-xq8-4">
          <mxGeometry x="-0.3626" y="3" relative="1" as="geometry">
            <mxPoint x="29" as="offset" />
          </mxGeometry>
        </mxCell>
        <mxCell id="C9_ZeGXNqVljK5FA-xq8-6" value="" style="image;html=1;image=img/lib/clip_art/computers/Server_Rack_128x128.png" vertex="1" parent="1">
          <mxGeometry x="590" y="290" width="80" height="80" as="geometry" />
        </mxCell>
        <mxCell id="C9_ZeGXNqVljK5FA-xq8-9" value="" style="verticalLabelPosition=bottom;sketch=0;aspect=fixed;html=1;verticalAlign=top;strokeColor=none;align=center;outlineConnect=0;shape=mxgraph.citrix.pda;" vertex="1" parent="1">
          <mxGeometry x="360" y="299.5" width="30" height="61" as="geometry" />
        </mxCell>
        <mxCell id="C9_ZeGXNqVljK5FA-xq8-10" value="" style="endArrow=classic;html=1;rounded=0;" edge="1" parent="1">
          <mxGeometry width="50" height="50" relative="1" as="geometry">
            <mxPoint x="580" y="339.5" as="sourcePoint" />
            <mxPoint x="430" y="339.5" as="targetPoint" />
          </mxGeometry>
        </mxCell>
        <mxCell id="C9_ZeGXNqVljK5FA-xq8-11" value="响应文书下载地址" style="edgeLabel;html=1;align=center;verticalAlign=middle;resizable=0;points=[];" vertex="1" connectable="0" parent="C9_ZeGXNqVljK5FA-xq8-10">
          <mxGeometry x="0.3067" y="-1" relative="1" as="geometry">
            <mxPoint x="18" as="offset" />
          </mxGeometry>
        </mxCell>
        <mxCell id="C9_ZeGXNqVljK5FA-xq8-12" value="" style="verticalLabelPosition=bottom;sketch=0;aspect=fixed;html=1;verticalAlign=top;strokeColor=none;align=center;outlineConnect=0;shape=mxgraph.citrix.pda;" vertex="1" parent="1">
          <mxGeometry x="360" y="450" width="30" height="61" as="geometry" />
        </mxCell>
        <mxCell id="C9_ZeGXNqVljK5FA-xq8-13" value="" style="image;html=1;image=img/lib/clip_art/computers/Server_Rack_128x128.png" vertex="1" parent="1">
          <mxGeometry x="590" y="440.5" width="80" height="80" as="geometry" />
        </mxCell>
        <mxCell id="C9_ZeGXNqVljK5FA-xq8-16" value="" style="endArrow=classic;startArrow=classic;html=1;rounded=0;" edge="1" parent="1">
          <mxGeometry width="50" height="50" relative="1" as="geometry">
            <mxPoint x="420" y="490.5" as="sourcePoint" />
            <mxPoint x="580" y="490" as="targetPoint" />
          </mxGeometry>
        </mxCell>
        <mxCell id="C9_ZeGXNqVljK5FA-xq8-17" value="下载文书pdf文件" style="edgeLabel;html=1;align=center;verticalAlign=middle;resizable=0;points=[];" vertex="1" connectable="0" parent="C9_ZeGXNqVljK5FA-xq8-16">
          <mxGeometry x="-0.4749" y="1" relative="1" as="geometry">
            <mxPoint x="38" as="offset" />
          </mxGeometry>
        </mxCell>
        <mxCell id="C9_ZeGXNqVljK5FA-xq8-20" value="" style="edgeStyle=orthogonalEdgeStyle;rounded=0;orthogonalLoop=1;jettySize=auto;html=1;" edge="1" parent="1" source="C9_ZeGXNqVljK5FA-xq8-18" target="C9_ZeGXNqVljK5FA-xq8-19">
          <mxGeometry relative="1" as="geometry">
            <mxPoint x="280" y="600.5" as="targetPoint" />
          </mxGeometry>
        </mxCell>
        <mxCell id="C9_ZeGXNqVljK5FA-xq8-21" value="唤起打印预览页" style="edgeLabel;html=1;align=center;verticalAlign=middle;resizable=0;points=[];" vertex="1" connectable="0" parent="C9_ZeGXNqVljK5FA-xq8-20">
          <mxGeometry x="0.1692" relative="1" as="geometry">
            <mxPoint x="16" as="offset" />
          </mxGeometry>
        </mxCell>
        <mxCell id="C9_ZeGXNqVljK5FA-xq8-18" value="" style="verticalLabelPosition=bottom;sketch=0;aspect=fixed;html=1;verticalAlign=top;strokeColor=none;align=center;outlineConnect=0;shape=mxgraph.citrix.pda;" vertex="1" parent="1">
          <mxGeometry x="360" y="570" width="30" height="61" as="geometry" />
        </mxCell>
        <mxCell id="C9_ZeGXNqVljK5FA-xq8-22" value="" style="edgeStyle=orthogonalEdgeStyle;rounded=0;orthogonalLoop=1;jettySize=auto;html=1;" edge="1" parent="1" source="C9_ZeGXNqVljK5FA-xq8-19" target="C9_ZeGXNqVljK5FA-xq8-3">
          <mxGeometry relative="1" as="geometry" />
        </mxCell>
        <mxCell id="C9_ZeGXNqVljK5FA-xq8-23" value="发送打印" style="edgeLabel;html=1;align=center;verticalAlign=middle;resizable=0;points=[];" vertex="1" connectable="0" parent="C9_ZeGXNqVljK5FA-xq8-22">
          <mxGeometry x="0.1111" y="3" relative="1" as="geometry">
            <mxPoint as="offset" />
          </mxGeometry>
        </mxCell>
        <mxCell id="C9_ZeGXNqVljK5FA-xq8-19" value="" style="verticalLabelPosition=bottom;sketch=0;aspect=fixed;html=1;verticalAlign=top;strokeColor=none;align=center;outlineConnect=0;shape=mxgraph.citrix.pda;" vertex="1" parent="1">
          <mxGeometry x="200" y="570" width="30" height="61" as="geometry" />
        </mxCell>
      </root>
    </mxGraphModel>
  </diagram>
</mxfile>
